<?xml version="1.0" encoding="utf-8"?>
<!-- Generator: Adobe Illustrator 25.2.3, SVG Export Plug-In . SVG Version: 6.00 Build 0)  -->
<svg version="1.1" id="Ebene_3" xmlns="http://www.w3.org/2000/svg" xmlns:xlink="http://www.w3.org/1999/xlink" x="0px" y="0px"
	 viewBox="0 0 230 280.3" style="enable-background:new 0 0 230 280.3;" xml:space="preserve">
<style type="text/css">
	.st0{fill:#26201F;}
	.st1{fill:#00D198;}
	.st2{fill:#25B9FF;}
	.st3{fill:#FD084D;}
	.st4{fill:#FF8144;}
	.st5{fill:#FFFFFF;}
</style>
<g>
	<path class="st0" d="M200,65.3c8.3,0,15,6.7,15,15v170c0,8.3-6.7,15-15,15H30c-8.3,0-15-6.7-15-15v-170c0-8.3,6.7-15,15-15
		L200,65.3 M200,50.3H30c-16.5,0-30,13.5-30,30v170c0,16.5,13.5,30,30,30h170c16.5,0,30-13.5,30-30v-170
		C230,63.8,216.5,50.3,200,50.3L200,50.3z"/>
	<path class="st1" d="M100,160.3H35c-5.5,0-10-4.5-10-10v-65c0-5.5,4.5-10,10-10h65c5.5,0,10,4.5,10,10v65
		C110,155.9,105.5,160.3,100,160.3z"/>
	<path class="st2" d="M195,160.3h-65c-5.5,0-10-4.5-10-10v-65c0-5.5,4.5-10,10-10h65c5.5,0,10,4.5,10,10v65
		C205,155.9,200.5,160.3,195,160.3z"/>
	<path class="st3" d="M195,255.3h-65c-5.5,0-10-4.5-10-10v-65c0-5.5,4.5-10,10-10h65c5.5,0,10,4.5,10,10v65
		C205,250.9,200.5,255.3,195,255.3z"/>
	<path class="st4" d="M100,255.3H35c-5.5,0-10-4.5-10-10v-65c0-5.5,4.5-10,10-10h65c5.5,0,10,4.5,10,10v65
		C110,250.9,105.5,255.3,100,255.3z"/>
</g>
<g>
	<g>
		<ellipse class="st5" cx="145" cy="57.3" rx="27.7" ry="49.8"/>
		<path class="st0" d="M145,114.7c-19.7,0-35.2-25.2-35.2-57.3S125.3,0,145,0s35.2,25.2,35.2,57.3S164.7,114.7,145,114.7z M145,15
			c-9.5,0-20.2,18.1-20.2,42.3s10.7,42.3,20.2,42.3s20.2-18.1,20.2-42.3S154.5,15,145,15z"/>
	</g>
	<g>
		<ellipse class="st0" cx="155.9" cy="64.3" rx="14.2" ry="19"/>
	</g>
</g>
<g>
	<g>
		<ellipse class="st5" cx="85" cy="57.3" rx="27.7" ry="49.8"/>
		<path class="st0" d="M85,114.7c-19.7,0-35.2-25.2-35.2-57.3S65.3,0,85,0s35.2,25.2,35.2,57.3S104.7,114.7,85,114.7z M85,15
			c-9.5,0-20.2,18.1-20.2,42.3S75.5,99.7,85,99.7s20.2-18.1,20.2-42.3S94.5,15,85,15z"/>
	</g>
	<g>
		<ellipse class="st0" cx="95.9" cy="64.3" rx="14.2" ry="19"/>
	</g>
</g>
</svg>
